<svg xmlns="http://www.w3.org/2000/svg" xmlns:xlink="http://www.w3.org/1999/xlink" viewBox="0 0 642.97 160"><defs><style>.cls-1,.cls-2,.cls-3{fill-rule:evenodd;}.cls-1{fill:url(#linear-gradient);}.cls-2{fill:#fff;}.cls-3,.cls-4{fill:#272727;}</style><linearGradient id="linear-gradient" x1="3.43" y1="3.21" x2="157.01" y2="156.79" gradientUnits="userSpaceOnUse"><stop offset="0.01" stop-color="#748fc9"/><stop offset="1" stop-color="#4f6683"/></linearGradient></defs><title>Asset 1</title><g id="Layer_2" data-name="Layer 2"><g id="Capa_1" data-name="Capa 1"><path class="cls-1" d="M0,10C0,5.52,5.52,0,10,0H150.22C157.3,0,160,2.7,160,9.78V150.67c0,4.18-5.15,9.33-9.33,9.33H10.44C3.07,160,0,156.93,0,149.56Z"/><polygon class="cls-2" points="94.83 141.12 91.05 121.69 109.71 128.11 111.74 122.18 89.66 114.54 83.88 84.79 112.31 94.74 116.78 117.73 122.46 116.63 118.66 97.13 139.75 103.15 142.22 97.15 121.22 91.1 138.44 77.73 133.8 73 114.09 88.78 85.9 78.85 108.32 59.1 132.58 66.25 135.04 60.23 114.06 54.28 131.26 40.8 126.64 36.18 109.41 49.55 105.64 30.15 99.96 31.25 104.43 54.24 81.8 74.11 76 44.27 93.53 29.03 89.41 24.19 74.62 37.21 70.84 17.78 65.17 18.88 68.95 38.31 50.36 31.78 48.35 37.8 70.32 45.37 76.12 75.21 47.69 65.26 43.22 42.27 37.54 43.37 41.32 62.78 20.27 56.84 17.78 62.85 38.85 68.89 21.56 82.27 26.12 86.93 45.86 71.23 74.1 81.15 51.63 100.91 27.43 93.66 24.96 99.77 46.01 105.71 28.74 119.2 33.3 123.83 50.57 110.36 54.36 129.85 60.04 128.75 55.57 105.76 78.2 85.89 83.99 115.64 66.39 130.99 70.48 135.73 85.38 122.79 89.16 142.22 94.83 141.12"/><path class="cls-3" d="M340.05,20V39.81H303.81V20ZM236.22,39.81h-36V20h36Zm67.59,61.74v-32H236.24v32h-36v-50h139.8v50Z"/><path class="cls-3" d="M438.28,22a31.59,31.59,0,0,1,11.93,5.2c1.43,1.33,4.25,4.84,8.83,12.58H384.33c4.55-7.74,7.44-11.48,8.87-12.8a30.92,30.92,0,0,1,11.92-5.22A65.68,65.68,0,0,1,420,20h4A72.61,72.61,0,0,1,438.28,22Zm10.93,61.39-17.27-31.8h33.67c4.16,7.57,7.2,14.28,13.9,26.84q9.33,17.6,12,23.09H351.7q2.64-5.47,12-23.09c6.69-12.56,9.79-19.27,14-26.84h33.66L394,83.42Z"/><path class="cls-3" d="M539.86,39.81h-36.7V20h36.67Zm37,61.74q-31.27,0-49.91-7.79-14.43-6.12-20.41-16.56c-2.41-4.68-3.52-10.31-3.37-16.88V51.47h36.67l.11,6.88q0,10.41,8.86,17.47,10.08,8.13,28.05,8.11H643v17.62Z"/><path class="cls-3" d="M201.89,120.86H207a6.15,6.15,0,0,1,3.79,1,3.54,3.54,0,0,1,1.24,2.85,3.43,3.43,0,0,1-1.27,2.79,6.18,6.18,0,0,1-4,1h-5Zm5.63,9.57a4.71,4.71,0,0,1,3.33,1.13,4.06,4.06,0,0,1,1.19,3.07v1.93a8.44,8.44,0,0,0,.21,2A2.83,2.83,0,0,0,213,140h1.68v-.36a2.67,2.67,0,0,1-.74-1.29,6.9,6.9,0,0,1-.22-1.83v-2a6,6,0,0,0-.82-3.25,4.4,4.4,0,0,0-2.68-1.82,5.17,5.17,0,0,0,2.61-1.88,4.9,4.9,0,0,0,.92-2.92,5.19,5.19,0,0,0-1.72-4.22,7.6,7.6,0,0,0-5-1.44h-6.79v21h1.64v-9.57Z"/><polygon class="cls-3" points="250.01 128.51 240.34 128.51 240.34 120.86 251.35 120.86 251.35 118.95 238.69 118.95 238.69 140 251.41 140 251.41 138.09 240.34 138.09 240.34 130.44 250.01 130.44 250.01 128.51"/><polygon class="cls-3" points="285.67 128.51 275.92 128.51 275.92 120.86 287.08 120.86 287.08 118.95 274.28 118.95 274.28 140 275.92 140 275.92 130.44 285.67 130.44 285.67 128.51"/><path class="cls-3" d="M311.45,120.86h5.15a6.15,6.15,0,0,1,3.79,1,3.54,3.54,0,0,1,1.24,2.85,3.43,3.43,0,0,1-1.27,2.79,6.17,6.17,0,0,1-4,1h-4.95Zm5.63,9.57a4.71,4.71,0,0,1,3.33,1.13,4.06,4.06,0,0,1,1.19,3.07v1.93a9,9,0,0,0,.21,2,2.91,2.91,0,0,0,.72,1.47h1.68v-.36a2.65,2.65,0,0,1-.73-1.29,6.5,6.5,0,0,1-.23-1.83v-2a6,6,0,0,0-.82-3.25,4.4,4.4,0,0,0-2.68-1.82,5.13,5.13,0,0,0,2.61-1.88,4.9,4.9,0,0,0,.92-2.92,5.19,5.19,0,0,0-1.72-4.22,7.6,7.6,0,0,0-5-1.44h-6.79v21h1.64v-9.57Z"/><rect class="cls-4" x="348.61" y="118.95" width="1.67" height="21.05"/><path class="cls-3" d="M389.69,130.43h-7v1.92H388v4.28a4.68,4.68,0,0,1-1.91,1,10.92,10.92,0,0,1-3.4.46,5.88,5.88,0,0,1-4.59-2,7.06,7.06,0,0,1-1.75-5v-3.57a7,7,0,0,1,1.66-4.83,5.45,5.45,0,0,1,4.34-1.9,6,6,0,0,1,3.93,1.14,5.25,5.25,0,0,1,1.71,3h1.53l0-.09a6.71,6.71,0,0,0-2.12-4.28,7.35,7.35,0,0,0-5.08-1.64,7,7,0,0,0-5.51,2.39,8.92,8.92,0,0,0-2.13,6.17v3.75a8.89,8.89,0,0,0,2.24,6.32,7.46,7.46,0,0,0,5.74,2.42,10.59,10.59,0,0,0,4.49-.83,6.18,6.18,0,0,0,2.47-1.77Z"/><polygon class="cls-3" points="425.08 128.51 415.42 128.51 415.42 120.86 426.42 120.86 426.42 118.95 413.77 118.95 413.77 140 426.48 140 426.48 138.09 415.42 138.09 415.42 130.44 425.08 130.44 425.08 128.51"/><path class="cls-3" d="M451,120.86h5.14a6.15,6.15,0,0,1,3.79,1,3.48,3.48,0,0,1,1.25,2.85,3.42,3.42,0,0,1-1.26,2.79,6.25,6.25,0,0,1-4,1H451Zm5.62,9.57a4.71,4.71,0,0,1,3.33,1.13,4,4,0,0,1,1.2,3.07v1.93a9,9,0,0,0,.2,2A2.91,2.91,0,0,0,462,140h1.68v-.36a2.73,2.73,0,0,1-.73-1.29,6.9,6.9,0,0,1-.22-1.83v-2a5.94,5.94,0,0,0-.83-3.25,4.32,4.32,0,0,0-2.67-1.82,5.1,5.1,0,0,0,2.6-1.88,4.84,4.84,0,0,0,.93-2.92,5.22,5.22,0,0,0-1.72-4.22,7.65,7.65,0,0,0-5-1.44H449.3v21H451v-9.57Z"/><path class="cls-3" d="M493.91,121.11H494l4,11.24h-8.12Zm6.7,18.89h1.7l-7.57-21h-1.56l-7.62,21h1.71l2.07-5.74h9.19Z"/><path class="cls-3" d="M537.49,133.34a5.36,5.36,0,0,1-1.71,3.56,5.9,5.9,0,0,1-3.92,1.19,5.13,5.13,0,0,1-4.23-2A7.79,7.79,0,0,1,526,131v-3.17a7.75,7.75,0,0,1,1.59-5,5.15,5.15,0,0,1,4.23-2,5.81,5.81,0,0,1,3.91,1.22,5.55,5.55,0,0,1,1.72,3.52H539l0-.09a7.16,7.16,0,0,0-2.15-4.85,7.27,7.27,0,0,0-5.06-1.71,6.72,6.72,0,0,0-5.41,2.48,9.68,9.68,0,0,0-2.05,6.38v3.34a9.6,9.6,0,0,0,2.05,6.38,6.71,6.71,0,0,0,5.41,2.47,6.68,6.68,0,0,0,7.21-6.58l0-.08Z"/><rect class="cls-4" x="563.03" y="118.95" width="1.66" height="21.05"/><path class="cls-3" d="M595.62,117h1.49l3.43-3.74,0-.1h-2Zm7.18,14a7.53,7.53,0,0,1-1.64,5.12,5.64,5.64,0,0,1-4.56,1.92,5.47,5.47,0,0,1-4.48-1.92,7.73,7.73,0,0,1-1.6-5.12v-3.19a7.69,7.69,0,0,1,1.59-5.07,5.44,5.44,0,0,1,4.46-1.93,5.7,5.7,0,0,1,4.58,1.93,7.56,7.56,0,0,1,1.65,5.07Zm1.65-3.24a9.31,9.31,0,0,0-2.16-6.39,7.13,7.13,0,0,0-5.72-2.47,7,7,0,0,0-5.62,2.47,9.48,9.48,0,0,0-2.09,6.39v3.34a9.49,9.49,0,0,0,2.1,6.42A7,7,0,0,0,596.6,140a7.24,7.24,0,0,0,5.72-2.43,9.51,9.51,0,0,0,2.13-6.42Z"/><polygon class="cls-3" points="642.97 118.95 641.34 118.95 641.34 137.1 641.24 137.11 629.85 118.95 628.18 118.95 628.18 140 629.85 140 629.85 121.81 629.92 121.8 641.34 140 642.97 140 642.97 118.95"/></g></g></svg>